<mxfile host="Electron" modified="2024-01-23T23:29:33.537Z" agent="Mozilla/5.0 (Windows NT 10.0; Win64; x64) AppleWebKit/537.36 (KHTML, like Gecko) draw.io/21.7.5 Chrome/114.0.5735.289 Electron/25.8.1 Safari/537.36" etag="Wo1buekjl8GEe0FsSHWO" version="21.7.5" type="device">
  <diagram name="Page-1" id="rUKFdzqLC0G8-GQ-a-Rq">
    <mxGraphModel dx="2414" dy="1448" grid="0" gridSize="10" guides="1" tooltips="1" connect="1" arrows="1" fold="1" page="0" pageScale="1" pageWidth="850" pageHeight="1100" math="0" shadow="0">
      <root>
        <mxCell id="0" />
        <mxCell id="1" parent="0" />
        <mxCell id="V65XTGZ05QhRZO4D7E0X-3" value="" style="edgeStyle=none;curved=1;rounded=0;orthogonalLoop=1;jettySize=auto;html=1;endArrow=open;startSize=14;endSize=14;sourcePerimeterSpacing=8;targetPerimeterSpacing=8;" edge="1" parent="1" source="V65XTGZ05QhRZO4D7E0X-1" target="V65XTGZ05QhRZO4D7E0X-2">
          <mxGeometry relative="1" as="geometry" />
        </mxCell>
        <mxCell id="V65XTGZ05QhRZO4D7E0X-1" value="CLIENTE" style="whiteSpace=wrap;html=1;" vertex="1" parent="1">
          <mxGeometry x="-343.199951171875" y="-78.79998779296875" width="120" height="60" as="geometry" />
        </mxCell>
        <mxCell id="V65XTGZ05QhRZO4D7E0X-2" value="GENERAR" style="rhombus;whiteSpace=wrap;html=1;" vertex="1" parent="1">
          <mxGeometry x="-83.199951171875" y="-88.79998779296875" width="80" height="80" as="geometry" />
        </mxCell>
        <mxCell id="V65XTGZ05QhRZO4D7E0X-5" value="" style="edgeStyle=none;curved=1;rounded=0;orthogonalLoop=1;jettySize=auto;html=1;endArrow=open;startSize=14;endSize=14;sourcePerimeterSpacing=8;targetPerimeterSpacing=8;" edge="1" parent="1" source="V65XTGZ05QhRZO4D7E0X-4" target="V65XTGZ05QhRZO4D7E0X-2">
          <mxGeometry relative="1" as="geometry" />
        </mxCell>
        <mxCell id="V65XTGZ05QhRZO4D7E0X-12" value="" style="edgeStyle=none;curved=1;rounded=0;orthogonalLoop=1;jettySize=auto;html=1;endArrow=open;startSize=14;endSize=14;sourcePerimeterSpacing=8;targetPerimeterSpacing=8;" edge="1" parent="1" source="V65XTGZ05QhRZO4D7E0X-4" target="V65XTGZ05QhRZO4D7E0X-10">
          <mxGeometry relative="1" as="geometry" />
        </mxCell>
        <mxCell id="V65XTGZ05QhRZO4D7E0X-4" value="VENTAS" style="whiteSpace=wrap;html=1;" vertex="1" parent="1">
          <mxGeometry x="127.00004882812499" y="-78.800048828125" width="120" height="60" as="geometry" />
        </mxCell>
        <mxCell id="V65XTGZ05QhRZO4D7E0X-6" value="1" style="text;strokeColor=none;align=center;fillColor=none;html=1;verticalAlign=middle;whiteSpace=wrap;rounded=0;" vertex="1" parent="1">
          <mxGeometry x="-143.199951171875" y="-88.800048828125" width="60" height="30" as="geometry" />
        </mxCell>
        <mxCell id="V65XTGZ05QhRZO4D7E0X-7" value="N" style="text;strokeColor=none;align=center;fillColor=none;html=1;verticalAlign=middle;whiteSpace=wrap;rounded=0;" vertex="1" parent="1">
          <mxGeometry x="-3.199951171875" y="-88.800048828125" width="60" height="30" as="geometry" />
        </mxCell>
        <mxCell id="V65XTGZ05QhRZO4D7E0X-11" value="" style="edgeStyle=none;curved=1;rounded=0;orthogonalLoop=1;jettySize=auto;html=1;endArrow=open;startSize=14;endSize=14;sourcePerimeterSpacing=8;targetPerimeterSpacing=8;" edge="1" parent="1" source="V65XTGZ05QhRZO4D7E0X-9" target="V65XTGZ05QhRZO4D7E0X-10">
          <mxGeometry relative="1" as="geometry" />
        </mxCell>
        <mxCell id="V65XTGZ05QhRZO4D7E0X-9" value="REPARTIDOR" style="whiteSpace=wrap;html=1;" vertex="1" parent="1">
          <mxGeometry x="130.000048828125" y="248.999951171875" width="120" height="60" as="geometry" />
        </mxCell>
        <mxCell id="V65XTGZ05QhRZO4D7E0X-10" value="REPARTIR" style="rhombus;whiteSpace=wrap;html=1;" vertex="1" parent="1">
          <mxGeometry x="147.000048828125" y="71.99995117187501" width="80" height="80" as="geometry" />
        </mxCell>
      </root>
    </mxGraphModel>
  </diagram>
</mxfile>
